<?xml version="1.0" encoding="iso-8859-1"?>
<!-- Generator: Adobe Illustrator 19.0.0, SVG Export Plug-In . SVG Version: 6.00 Build 0)  -->
<svg version="1.1" id="Capa_1" xmlns="http://www.w3.org/2000/svg" xmlns:xlink="http://www.w3.org/1999/xlink" x="0px" y="0px"
	 viewBox="0 0 360 360" style="enable-background:new 0 0 360 360;" xml:space="preserve">
<g id="XMLID_227_">
	<path id="XMLID_228_" d="M344.259,126.683h-48.518V77.834L212.719,0H15.741v360h280v-50.59h48.518V126.683z M314.259,279.41h-210
		V156.683h210V279.41z"/>
	<polygon id="XMLID_231_" points="170.892,234.942 139.035,234.942 139.035,183.11 126.892,183.11 126.892,245.59 170.892,245.59 	
		"/>
	<path id="XMLID_232_" d="M178.943,236.218c2.669,2.963,5.866,5.339,9.593,7.128c3.725,1.79,7.876,2.684,12.451,2.684
		c4.4,0,8.477-0.865,12.232-2.596c3.754-1.73,6.98-4.048,9.68-6.952c2.698-2.904,4.811-6.248,6.336-10.032
		c1.525-3.784,2.288-7.758,2.288-11.924c0-3.93-0.734-7.802-2.199-11.616c-1.468-3.813-3.521-7.216-6.16-10.208
		c-2.641-2.992-5.823-5.412-9.548-7.26c-3.727-1.848-7.848-2.772-12.364-2.772c-4.4,0-8.479,0.866-12.232,2.596
		c-3.755,1.732-6.996,4.064-9.724,6.996c-2.729,2.935-4.87,6.307-6.424,10.12c-1.556,3.814-2.332,7.803-2.332,11.968
		c0,3.991,0.733,7.892,2.2,11.704C174.205,229.868,176.273,233.256,178.943,236.218z M184.048,206.738
		c0.792-2.493,1.949-4.722,3.476-6.688c1.525-1.965,3.433-3.549,5.721-4.752c2.288-1.202,4.898-1.804,7.832-1.804
		c2.815,0,5.352,0.572,7.611,1.716c2.258,1.144,4.165,2.684,5.721,4.62c1.554,1.936,2.757,4.166,3.607,6.688
		c0.85,2.523,1.276,5.134,1.276,7.831c0,2.583-0.397,5.119-1.189,7.612c-0.792,2.494-1.966,4.738-3.52,6.732
		c-1.556,1.995-3.463,3.594-5.721,4.796c-2.259,1.203-4.854,1.804-7.787,1.804c-2.876,0-5.442-0.586-7.7-1.76
		c-2.26-1.173-4.166-2.728-5.72-4.664c-1.556-1.936-2.743-4.165-3.564-6.688c-0.822-2.521-1.232-5.133-1.232-7.832
		C182.859,211.769,183.256,209.232,184.048,206.738z"/>
	<path id="XMLID_236_" d="M245.823,236.79c2.669,2.875,5.809,5.134,9.416,6.776c3.608,1.643,7.465,2.464,11.572,2.464
		c6.629,0,12.436-2.493,17.424-7.48v7.04h10.032v-32.12h-22.616v8.888h12.584v4.4c-4.87,5.691-10.326,8.536-16.368,8.536
		c-2.64,0-5.09-0.542-7.348-1.628c-2.259-1.085-4.21-2.566-5.852-4.444c-1.644-1.877-2.935-4.092-3.872-6.644
		c-0.939-2.552-1.408-5.293-1.408-8.228c0-2.816,0.425-5.485,1.276-8.008c0.85-2.521,2.053-4.752,3.607-6.688
		c1.554-1.936,3.432-3.461,5.632-4.576c2.2-1.114,4.62-1.672,7.261-1.672c3.344,0,6.438,0.822,9.283,2.464
		c2.845,1.644,5.061,4.02,6.645,7.128l9.064-6.688c-2.111-4.165-5.266-7.48-9.46-9.944c-4.195-2.464-9.226-3.696-15.092-3.696
		c-4.342,0-8.36,0.836-12.056,2.508c-3.696,1.672-6.908,3.931-9.637,6.776c-2.728,2.847-4.87,6.16-6.424,9.944
		c-1.555,3.784-2.332,7.818-2.332,12.1c0,4.518,0.777,8.727,2.332,12.628C241.041,230.528,243.153,233.916,245.823,236.79z"/>
</g>
<g>
</g>
<g>
</g>
<g>
</g>
<g>
</g>
<g>
</g>
<g>
</g>
<g>
</g>
<g>
</g>
<g>
</g>
<g>
</g>
<g>
</g>
<g>
</g>
<g>
</g>
<g>
</g>
<g>
</g>
</svg>
